<svg width="241" height="65" viewBox="0 0 241 65" fill="none" xmlns="http://www.w3.org/2000/svg">
<g clip-path="url(#clip0_1_12)">
<path d="M57.11 30.64L61.47 17.87L48.7 13.51L42.76 1.39999L30.65 7.34999L17.87 2.97999L13.51 15.75L1.40002 21.7L7.35002 33.81L2.99002 46.58L15.76 50.94L21.71 63.06L33.82 57.11L46.59 61.47L50.95 48.7L63.06 42.75L57.11 30.64ZM54.26 34.39L34.39 54.26C33.19 55.46 31.25 55.46 30.05 54.26L10.2 34.4C9.00002 33.2 9.00002 31.26 10.2 30.07L30.06 10.2C31.26 8.99999 33.2 8.99999 34.4 10.2L54.27 30.07C55.47 31.27 55.47 33.21 54.27 34.4L54.26 34.39Z" fill="#FFCF64"/>
<path d="M53.62 19.42L51.65 6.07L38.3 8.04L27.46 0L19.42 10.84L6.07 12.82L8.04 26.17L0 37L10.84 45.04L12.81 58.39L26.16 56.42L37 64.46L45.04 53.62L58.39 51.64L56.42 38.29L64.46 27.45L53.62 19.4V19.42ZM52.8 24.06L44.24 50.82C43.72 52.43 42 53.32 40.39 52.81L13.63 44.25C12.02 43.74 11.13 42.01 11.64 40.4L20.21 13.64C20.72 12.03 22.45 11.14 24.06 11.65L50.82 20.21C52.43 20.72 53.32 22.45 52.81 24.06H52.8Z" fill="#FF8C3E"/>
<path d="M93.27 24.79C92.82 24.22 92.21 23.8 91.44 23.53C90.67 23.26 89.94 23.12 89.26 23.12C88.86 23.12 88.44 23.17 88.02 23.26C87.59 23.35 87.19 23.5 86.81 23.7C86.43 23.9 86.12 24.17 85.89 24.5C85.65 24.83 85.54 25.23 85.54 25.71C85.54 26.47 85.82 27.05 86.39 27.45C86.96 27.85 87.67 28.2 88.54 28.48C89.4 28.76 90.33 29.05 91.33 29.33C92.32 29.61 93.25 30.02 94.12 30.54C94.98 31.06 95.7 31.76 96.27 32.63C96.84 33.51 97.12 34.68 97.12 36.15C97.12 37.62 96.86 38.77 96.34 39.81C95.82 40.85 95.11 41.72 94.23 42.4C93.34 43.09 92.31 43.6 91.14 43.93C89.97 44.26 88.73 44.43 87.43 44.43C85.8 44.43 84.28 44.18 82.89 43.68C81.49 43.18 80.19 42.38 78.98 41.27L82.92 36.94C83.49 37.7 84.2 38.28 85.07 38.7C85.93 39.11 86.83 39.32 87.75 39.32C88.2 39.32 88.66 39.27 89.12 39.16C89.58 39.05 90 38.89 90.36 38.68C90.73 38.47 91.02 38.2 91.25 37.86C91.47 37.53 91.59 37.14 91.59 36.69C91.59 35.93 91.3 35.34 90.72 34.9C90.14 34.46 89.41 34.09 88.54 33.78C87.66 33.47 86.72 33.16 85.7 32.86C84.68 32.55 83.73 32.14 82.86 31.62C81.98 31.1 81.26 30.41 80.68 29.56C80.1 28.71 79.81 27.58 79.81 26.19C79.81 24.8 80.08 23.66 80.61 22.64C81.14 21.62 81.85 20.77 82.74 20.08C83.63 19.39 84.65 18.88 85.81 18.54C86.97 18.2 88.17 18.02 89.4 18.02C90.82 18.02 92.19 18.22 93.52 18.62C94.85 19.02 96.04 19.7 97.11 20.64L93.31 24.79H93.27Z" fill="#0F0F0F"/>
<path d="M103.42 31.22C103.42 29.21 103.76 27.39 104.43 25.75C105.1 24.12 106.05 22.73 107.25 21.58C108.46 20.43 109.89 19.55 111.55 18.93C113.21 18.31 115.02 18.01 116.98 18.01C118.94 18.01 120.76 18.32 122.41 18.93C124.07 19.55 125.5 20.43 126.71 21.58C127.92 22.73 128.86 24.12 129.53 25.75C130.2 27.38 130.54 29.21 130.54 31.22C130.54 33.23 130.2 35.05 129.53 36.69C128.86 38.32 127.91 39.71 126.71 40.86C125.5 42.01 124.07 42.89 122.41 43.51C120.75 44.13 118.94 44.43 116.98 44.43C115.02 44.43 113.2 44.12 111.55 43.51C109.89 42.89 108.46 42.01 107.25 40.86C106.04 39.71 105.1 38.32 104.43 36.69C103.76 35.06 103.42 33.23 103.42 31.22ZM109.17 31.22C109.17 32.4 109.35 33.49 109.72 34.47C110.09 35.45 110.61 36.3 111.3 37.03C111.99 37.75 112.81 38.31 113.77 38.72C114.73 39.12 115.8 39.32 116.98 39.32C118.16 39.32 119.23 39.12 120.19 38.72C121.15 38.32 121.97 37.76 122.66 37.03C123.35 36.31 123.87 35.46 124.24 34.47C124.61 33.49 124.79 32.4 124.79 31.22C124.79 30.04 124.61 28.98 124.24 27.99C123.87 27 123.35 26.14 122.66 25.42C121.97 24.7 121.15 24.14 120.19 23.73C119.23 23.33 118.16 23.13 116.98 23.13C115.8 23.13 114.73 23.33 113.77 23.73C112.81 24.13 111.99 24.69 111.3 25.42C110.61 26.14 110.09 27 109.72 27.99C109.35 28.98 109.17 30.06 109.17 31.22Z" fill="#0F0F0F"/>
<path d="M138.08 18.65H143.62V38.68H153.88V43.79H138.08V18.65Z" fill="#0F0F0F"/>
<path d="M168.76 18.65H173.34L184.28 43.79H178.03L175.86 38.46H166.1L164 43.79H157.89L168.76 18.65ZM170.89 25.96L167.84 33.77H173.98L170.89 25.96Z" fill="#0F0F0F"/>
<path d="M190.35 18.65H200.08C201.36 18.65 202.57 18.77 203.72 19.02C204.87 19.27 205.87 19.68 206.74 20.26C207.6 20.84 208.29 21.62 208.8 22.6C209.31 23.58 209.56 24.81 209.56 26.27C209.56 28.05 209.1 29.55 208.18 30.8C207.26 32.04 205.91 32.83 204.13 33.16L210.52 43.78H203.88L198.63 33.73H195.9V43.78H190.36V18.65H190.35ZM195.89 29.05H199.16C199.66 29.05 200.18 29.03 200.74 29C201.3 28.96 201.8 28.86 202.25 28.68C202.7 28.5 203.07 28.22 203.37 27.85C203.67 27.47 203.81 26.94 203.81 26.25C203.81 25.61 203.68 25.1 203.42 24.72C203.16 24.34 202.83 24.05 202.43 23.85C202.03 23.65 201.56 23.51 201.05 23.44C200.53 23.37 200.02 23.33 199.52 23.33H195.9V29.05H195.89Z" fill="#0F0F0F"/>
<path d="M225.18 18.65H229.76L240.7 43.79H234.45L232.28 38.46H222.52L220.43 43.79H214.32L225.19 18.65H225.18ZM227.31 25.96L224.26 33.77H230.4L227.31 25.96Z" fill="#0F0F0F"/>
</g>
<defs>
<clipPath id="clip0_1_12">
<rect width="240.7" height="64.46" fill="white"/>
</clipPath>
</defs>
</svg>
