<?xml version="1.0" encoding="utf-8"?>
<!-- Generator: Adobe Illustrator 23.0.2, SVG Export Plug-In . SVG Version: 6.00 Build 0)  -->
<svg version="1.1" id="Layer_1" xmlns="http://www.w3.org/2000/svg" xmlns:xlink="http://www.w3.org/1999/xlink" width="241" height="65"
	 viewBox="0 0 241 65" style="enable-background:new 0 0 241 65;" xml:space="preserve">
<style type="text/css">
	.st0{clip-path:url(#SVGID_2_);}
	.st1{fill:#FFCF64;}
	.st2{fill:#FF8C3E;}
	.st3{fill:#FFFFFF;}
</style>
<g>
	<defs>
		<rect id="SVGID_1_" y="0" width="240.7" height="64.5"/>
	</defs>
	<clipPath id="SVGID_2_">
		<use xlink:href="#SVGID_1_"  style="overflow:visible;"/>
	</clipPath>
	<g class="st0">
		<path class="st1" d="M57.1,30.6l4.4-12.8l-12.8-4.4L42.8,1.4L30.6,7.4L17.9,3l-4.4,12.8l-12.1,6l5.9,12.1L3,46.6l12.8,4.4
			l5.9,12.1l12.1-6l12.8,4.4L51,48.7l12.1-6L57.1,30.6z M54.3,34.4L34.4,54.3c-1.2,1.2-3.1,1.2-4.3,0L10.2,34.4
			c-1.2-1.2-1.2-3.1,0-4.3l19.9-19.9c1.2-1.2,3.1-1.2,4.3,0l19.9,19.9C55.5,31.3,55.5,33.2,54.3,34.4L54.3,34.4z"/>
		<path class="st2" d="M53.6,19.4l-2-13.4L38.3,8L27.5,0l-8,10.8l-13.4,2l2,13.4L0,37l10.8,8l2,13.3l13.3-2l10.8,8l8-10.8l13.3-2
			l-2-13.3l8-10.8L53.6,19.4L53.6,19.4z M52.8,24.1l-8.6,26.8c-0.5,1.6-2.2,2.5-3.9,2l-26.8-8.6c-1.6-0.5-2.5-2.2-2-3.8l8.6-26.8
			c0.5-1.6,2.2-2.5,3.9-2l26.8,8.6C52.4,20.7,53.3,22.5,52.8,24.1L52.8,24.1z"/>
		<path class="st3" d="M93.3,24.8c-0.4-0.6-1.1-1-1.8-1.3c-0.8-0.3-1.5-0.4-2.2-0.4c-0.4,0-0.8,0-1.2,0.1c-0.4,0.1-0.8,0.2-1.2,0.4
			c-0.4,0.2-0.7,0.5-0.9,0.8c-0.2,0.3-0.3,0.7-0.3,1.2c0,0.8,0.3,1.3,0.8,1.7c0.6,0.4,1.3,0.8,2.2,1c0.9,0.3,1.8,0.6,2.8,0.9
			c1,0.3,1.9,0.7,2.8,1.2c0.9,0.5,1.6,1.2,2.1,2.1c0.6,0.9,0.9,2,0.9,3.5c0,1.5-0.3,2.6-0.8,3.7c-0.5,1-1.2,1.9-2.1,2.6
			c-0.9,0.7-1.9,1.2-3.1,1.5c-1.2,0.3-2.4,0.5-3.7,0.5c-1.6,0-3.2-0.3-4.5-0.8c-1.4-0.5-2.7-1.3-3.9-2.4l3.9-4.3
			c0.6,0.8,1.3,1.3,2.2,1.8c0.9,0.4,1.8,0.6,2.7,0.6c0.4,0,0.9,0,1.4-0.2s0.9-0.3,1.2-0.5c0.4-0.2,0.7-0.5,0.9-0.8
			c0.2-0.3,0.3-0.7,0.3-1.2c0-0.8-0.3-1.3-0.9-1.8c-0.6-0.4-1.3-0.8-2.2-1.1c-0.9-0.3-1.8-0.6-2.8-0.9c-1-0.3-2-0.7-2.8-1.2
			c-0.9-0.5-1.6-1.2-2.2-2.1s-0.9-2-0.9-3.4c0-1.4,0.3-2.5,0.8-3.6c0.5-1,1.2-1.9,2.1-2.6s1.9-1.2,3.1-1.5c1.2-0.3,2.4-0.5,3.6-0.5
			c1.4,0,2.8,0.2,4.1,0.6c1.3,0.4,2.5,1.1,3.6,2L93.3,24.8L93.3,24.8z"/>
		<path class="st3" d="M103.4,31.2c0-2,0.3-3.8,1-5.5c0.7-1.6,1.6-3,2.8-4.2c1.2-1.1,2.6-2,4.3-2.6c1.7-0.6,3.5-0.9,5.4-0.9
			c2,0,3.8,0.3,5.4,0.9c1.7,0.6,3.1,1.5,4.3,2.6s2.2,2.5,2.8,4.2s1,3.5,1,5.5s-0.3,3.8-1,5.5c-0.7,1.6-1.6,3-2.8,4.2
			c-1.2,1.1-2.6,2-4.3,2.6c-1.7,0.6-3.5,0.9-5.4,0.9c-2,0-3.8-0.3-5.4-0.9c-1.7-0.6-3.1-1.5-4.3-2.6c-1.2-1.2-2.2-2.5-2.8-4.2
			C103.8,35.1,103.4,33.2,103.4,31.2z M109.2,31.2c0,1.2,0.2,2.3,0.6,3.3c0.4,1,0.9,1.8,1.6,2.6c0.7,0.7,1.5,1.3,2.5,1.7
			c1,0.4,2,0.6,3.2,0.6s2.3-0.2,3.2-0.6c1-0.4,1.8-1,2.5-1.7c0.7-0.7,1.2-1.6,1.6-2.6c0.4-1,0.6-2.1,0.6-3.3c0-1.2-0.2-2.2-0.6-3.2
			c-0.4-1-0.9-1.9-1.6-2.6c-0.7-0.7-1.5-1.3-2.5-1.7c-1-0.4-2-0.6-3.2-0.6s-2.3,0.2-3.2,0.6c-1,0.4-1.8,1-2.5,1.7
			c-0.7,0.7-1.2,1.6-1.6,2.6C109.3,29,109.2,30.1,109.2,31.2z"/>
		<path class="st3" d="M138.1,18.7h5.5v20h10.3v5.1h-15.8V18.7z"/>
		<path class="st3" d="M168.8,18.7h4.6l10.9,25.1H178l-2.2-5.3h-9.8l-2.1,5.3h-6.1L168.8,18.7z M170.9,26l-3.1,7.8h6.1L170.9,26z"/>
		<path class="st3" d="M190.4,18.7h9.7c1.3,0,2.5,0.1,3.6,0.4s2.1,0.7,3,1.2c0.9,0.6,1.5,1.4,2.1,2.3c0.5,1,0.8,2.2,0.8,3.7
			c0,1.8-0.5,3.3-1.4,4.5c-0.9,1.2-2.3,2-4,2.4l6.4,10.6h-6.6l-5.3-10h-2.7v10h-5.5L190.4,18.7L190.4,18.7z M195.9,29.1h3.3
			c0.5,0,1,0,1.6,0c0.6,0,1.1-0.1,1.5-0.3s0.8-0.5,1.1-0.8c0.3-0.4,0.4-0.9,0.4-1.6c0-0.6-0.1-1.1-0.4-1.5c-0.3-0.4-0.6-0.7-1-0.9
			c-0.4-0.2-0.9-0.3-1.4-0.4c-0.5-0.1-1-0.1-1.5-0.1h-3.6L195.9,29.1L195.9,29.1z"/>
		<path class="st3" d="M225.2,18.7h4.6l10.9,25.1h-6.3l-2.2-5.3h-9.8l-2.1,5.3h-6.1L225.2,18.7L225.2,18.7z M227.3,26l-3.1,7.8h6.1
			L227.3,26z"/>
	</g>
</g>
</svg>
