<svg width="17.055mm" height="17.055mm" version="1.1" viewBox="0 0 17.055 17.055" xmlns="http://www.w3.org/2000/svg">
 <g transform="translate(-20.456 15.688)" stroke-width=".26458">
  <path d="m35.567-7.5814 1.1536-3.3787-3.3787-1.1536-1.5716-3.2041-3.2041 1.5743-3.3814-1.1562-1.1536 3.3787-3.2041 1.5743 1.5743 3.2041-1.1536 3.3787 3.3787 1.1536 1.5743 3.2067 3.2041-1.5743 3.3787 1.1536 1.1536-3.3787 3.2041-1.5743zm-0.75406 0.99219-5.2573 5.2573c-0.3175 0.3175-0.83079 0.3175-1.1483 0l-5.252-5.2546c-0.3175-0.3175-0.3175-0.83079 0-1.1456l5.2546-5.2573c0.3175-0.3175 0.83079-0.3175 1.1483 0l5.2573 5.2573c0.3175 0.3175 0.3175 0.83079 0 1.1456z" fill="#ffcf64"/>
  <path d="m34.643-10.55-0.52123-3.5322-3.5322 0.52123-2.8681-2.1272-2.1272 2.8681-3.5322 0.52388 0.52123 3.5322-2.1272 2.8654 2.8681 2.1272 0.52123 3.5322 3.5322-0.52123 2.8681 2.1273 2.1272-2.8681 3.5322-0.52388-0.52123-3.5322 2.1272-2.8681-2.8681-2.1299zm-0.21696 1.2277-2.2648 7.0802c-0.13758 0.42598-0.59267 0.66146-1.0186 0.52652l-7.0802-2.2648c-0.42598-0.13494-0.66146-0.59267-0.52652-1.0186l2.2675-7.0802c0.13494-0.42598 0.59267-0.66146 1.0186-0.52652l7.0802 2.2648c0.42598 0.13494 0.66146 0.59267 0.52652 1.0186z" fill="#ff8c3e"/>
 </g>
</svg>
